<?xml version="1.0" standalone="no"?>
<!DOCTYPE svg PUBLIC "-//W3C//DTD SVG 20010904//EN"
 "http://www.w3.org/TR/2001/REC-SVG-20010904/DTD/svg10.dtd">
<svg version="1.0" xmlns="http://www.w3.org/2000/svg"
 width="1800.000000pt" height="1800.000000pt" viewBox="0 0 1800.000000 1800.000000"
 preserveAspectRatio="xMidYMid meet">

<g transform="translate(0.000000,1800.000000) scale(0.100000,-0.100000)"
fill="#FFFFFF" stroke="none">
<path d="M8605 17114 c-696 -44 -1264 -144 -1880 -329 -2502 -755 -4485 -2738
-5240 -5240 -162 -538 -257 -1033 -312 -1630 -25 -271 -25 -1029 0 -1300 91
-987 320 -1841 726 -2705 767 -1631 2119 -2983 3751 -3751 882 -415 1730 -638
2770 -731 229 -20 986 -17 1230 5 994 91 1843 319 2710 726 1630 766 2984
2120 3751 3751 415 882 638 1730 731 2770 20 229 17 986 -5 1230 -56 605 -149
1094 -312 1635 -755 2502 -2738 4485 -5240 5240 -537 162 -1030 256 -1625 311
-166 15 -899 27 -1055 18z m-1349 -5944 c283 -23 573 -88 844 -189 118 -45
175 -61 211 -61 50 0 109 22 109 40 0 6 31 10 70 10 l70 0 0 -655 0 -655 -53
0 -53 0 -18 58 c-55 176 -251 581 -368 758 -39 59 -102 140 -141 181 -213 225
-566 347 -951 330 -276 -12 -486 -100 -675 -281 -132 -128 -220 -278 -263
-452 -27 -111 -29 -311 -5 -420 57 -260 224 -487 496 -672 189 -130 360 -211
786 -372 339 -128 493 -193 668 -282 346 -178 620 -404 781 -646 250 -375 291
-844 116 -1310 -165 -437 -615 -812 -1156 -962 -348 -96 -733 -105 -1091 -24
-215 48 -537 162 -811 288 -146 67 -204 73 -266 31 -29 -20 -49 -25 -96 -25
l-60 0 0 720 0 720 48 0 48 0 38 -132 c55 -192 127 -382 211 -553 247 -508
576 -788 1045 -890 117 -25 390 -31 528 -11 582 86 977 470 1009 982 18 294
-100 580 -336 814 -185 185 -347 272 -930 505 -217 86 -460 187 -541 224 -569
260 -915 571 -1051 942 -137 376 -106 815 84 1184 95 183 298 405 487 530 322
215 752 312 1216 275z m2631 -270 c112 -15 205 -36 311 -71 66 -22 103 -29
125 -24 18 3 49 9 70 12 l37 5 0 -282 0 -281 -26 3 c-21 2 -31 15 -57 74 -151
336 -285 454 -558 486 -311 37 -561 -127 -577 -377 -16 -245 157 -397 634
-559 339 -115 486 -191 618 -321 114 -113 169 -240 169 -390 -1 -338 -274
-599 -703 -670 -225 -38 -447 -7 -748 106 -103 39 -143 49 -166 44 -17 -3 -48
-9 -69 -12 l-37 -5 2 308 c3 306 3 309 24 312 18 3 25 -9 53 -89 104 -298 260
-478 478 -554 249 -87 548 -39 715 114 41 37 69 75 95 128 34 70 37 82 37 162
0 73 -4 95 -27 146 -57 123 -147 210 -292 283 -33 16 -175 71 -315 122 -376
135 -511 208 -637 343 -95 102 -137 212 -136 357 2 312 247 564 607 624 100
17 268 19 373 6z m3286 -23 c371 -98 689 -395 810 -760 98 -291 81 -649 -42
-927 -111 -252 -334 -480 -583 -595 -244 -112 -542 -136 -819 -65 -357 92
-665 380 -784 734 -101 301 -90 662 28 944 72 169 237 371 398 485 137 97 318
171 493 202 130 23 376 14 499 -18z m-10705 -19 c-2 -19 -11 -24 -48 -28 -75
-10 -117 -44 -147 -120 -17 -42 -18 -115 -21 -1077 l-3 -1033 303 0 c349 1
423 10 534 65 90 44 152 110 208 223 33 67 45 82 63 82 l23 0 0 -225 0 -225
-845 0 -845 0 0 25 c0 22 4 25 34 25 80 0 138 46 164 130 16 50 17 136 17
1005 0 884 -1 954 -18 1001 -27 79 -84 124 -156 124 -37 0 -41 2 -41 25 l0 25
391 0 390 0 -3 -22z m1552 -3 c0 -22 -4 -25 -39 -25 -24 0 -48 -8 -65 -21 -22
-17 -26 -29 -26 -68 0 -27 5 -63 11 -82 7 -19 127 -244 267 -502 218 -400 257
-465 267 -450 82 123 552 886 572 929 57 125 39 184 -60 192 -52 4 -57 7 -57
28 l0 24 266 0 265 0 -3 -22 c-2 -19 -11 -24 -52 -30 -70 -10 -145 -64 -219
-158 -34 -43 -196 -295 -359 -558 l-298 -480 0 -423 c0 -325 4 -438 14 -483
23 -97 72 -146 155 -154 46 -4 51 -7 51 -28 l0 -24 -385 0 -385 0 0 24 c0 21
5 24 51 28 64 6 97 31 129 94 l25 49 3 387 3 388 -316 568 c-174 312 -339 599
-368 637 -60 79 -119 125 -174 134 -29 5 -39 11 -41 29 l-3 22 385 0 386 0 0
-25z m7548 3 c-2 -17 -11 -24 -33 -26 -84 -7 -134 -46 -162 -125 -17 -49 -18
-110 -18 -1007 0 -897 1 -958 18 -1007 28 -81 73 -113 177 -126 8 -1 16 -12
18 -25 l3 -22 -390 0 -391 0 0 25 c0 22 4 25 34 25 80 0 138 46 164 130 16 50
17 136 17 1005 0 884 -1 954 -18 1001 -27 79 -84 124 -156 124 -37 0 -41 2
-41 25 l0 25 391 0 390 0 -3 -22z m3788 -880 c362 -497 666 -914 676 -927 18
-24 19 -5 16 800 l-3 824 -24 53 c-29 64 -66 92 -134 101 -44 5 -52 9 -55 29
l-3 22 265 0 266 0 0 -25 c0 -23 -4 -25 -42 -25 -49 0 -99 -26 -124 -65 -43
-66 -44 -87 -44 -1192 l0 -1053 -68 0 -69 0 -83 118 c-45 64 -389 535 -764
1046 l-681 929 -3 -874 c-1 -539 1 -906 7 -957 17 -137 65 -201 160 -210 46
-4 51 -7 51 -28 l0 -24 -265 0 -265 0 0 25 c0 22 4 25 35 25 82 0 142 53 167
145 10 40 13 242 13 995 0 880 -1 949 -18 996 -27 79 -84 124 -156 124 -37 0
-41 2 -41 25 l0 25 264 0 264 0 658 -902z m-5008 -1755 l-3 -48 -222 -3 -223
-2 0 -620 0 -620 -55 0 -55 0 0 620 0 620 -222 2 -223 3 -3 48 -3 47 506 0
506 0 -3 -47z m1114 -318 c114 -198 211 -361 215 -362 5 -2 103 161 218 362
l210 365 58 0 c31 0 57 -2 57 -4 0 -2 -110 -194 -245 -425 l-245 -420 0 -246
0 -245 -50 0 -50 0 0 243 0 244 -245 422 c-135 232 -245 424 -245 427 0 3 26
4 58 2 l57 -3 207 -360z m1708 -260 l0 -625 355 0 355 0 0 -45 0 -45 -410 0
-410 0 0 670 0 670 55 0 55 0 0 -625z m2418 578 l-3 -48 -342 -3 -343 -2 0
-255 0 -255 300 0 300 0 0 -45 0 -45 -300 0 -300 0 0 -275 0 -275 350 0 350 0
0 -45 0 -45 -405 0 -405 0 0 670 0 670 401 0 400 0 -3 -47z"/>
<path d="M12705 10816 c-232 -45 -401 -187 -520 -438 -147 -310 -165 -862 -40
-1233 123 -366 380 -575 707 -575 223 0 391 71 548 229 132 133 206 293 246
536 23 135 26 510 6 648 -32 217 -99 410 -190 544 -89 130 -241 238 -397 278
-83 22 -273 28 -360 11z"/>
</g>
</svg>
